<?xml version="1.0" encoding="utf-8"?>
<!-- Generator: Adobe Illustrator 26.1.0, SVG Export Plug-In . SVG Version: 6.00 Build 0)  -->
<svg version="1.1" id="Layer_1" xmlns="http://www.w3.org/2000/svg" xmlns:xlink="http://www.w3.org/1999/xlink" x="0px" y="0px"
	 viewBox="0 0 393.3 512" style="enable-background:new 0 0 393.3 512;" xml:space="preserve">
<style type="text/css">
	.st0{fill:url(#SVGID_1_);}
</style>
<path d="M209.1,42.7c3.8,2.7,7.6,5.4,11.2,8.2c-2.1,4.3-7.2,4.9-11.6,6.4c-1,0.4-1.9,0.8-2.9,1.1c-9.2,3.3-9.2,3.3-14.3,1.1
	c-3.4-1.9-6.7-4-10-6.1c-27.3-17-57-33.9-90.1-31.4c-5.9,1.5-9.1,3.5-12.5,8.7c-0.4,1.3-0.9,2.5-1.4,3.8c-0.3,0.8-0.5,1.5-0.9,2.4
	c-5.8,39.6,25.9,83.3,48,113.2c6.6,8.8,13.4,17.4,20.4,25.9c0.5,0.6,1.1,1.4,1.8,2c7.7,9.2,15.5,17.9,24.1,26.2
	c2.3,2.3,4.3,4.5,6.3,6.9c3.2,3.8,6.6,6.7,10.3,9.8c2.7,2.3,5,4.7,7.4,7.2c4.8,4.9,10,9.1,15.3,13.4c3.2,2.5,6.3,5.2,9.3,7.8
	c16.5,14.3,34.5,26.6,53.3,37.7c0.9,0.5,1.8,1,2.7,1.6c22.7,13.5,50.2,27.9,77.5,24.7c5.6-1.5,9.1-4,13.1-8.1
	c7.6-16.9,0.6-36.3-5.6-52.7c-6.8-17.4-16.2-33.6-26.8-49c-4.5-6.9-4.5-6.9-4.7-11c0.4-1,0.9-2,1.3-3.2c0.6-1.6,1.1-3.3,1.8-5
	c0.6-1.8,1.4-3.7,2-5.4c0.4-0.9,0.8-1.9,1-2.8c0.9-2.3,1.8-4.5,2.7-6.8c5.8,5.3,9.8,11.4,14.1,17.9c0.8,1.1,1.4,2.3,2.1,3.4
	c20.3,31.9,44.3,72.1,38,111.3c-5.7,24.7-29.7,41-50.1,53.8c-32.2,19.4-68.9,32.7-106.8,33.8c-0.9,0-1.8,0.1-2.7,0.1
	c-62.6,2.3-119.4-19.8-164.9-62.5c-1.1-1-2.1-2-3.3-3C48,308.7,35.4,290.4,25,270.8c-0.4-0.8-0.8-1.5-1.3-2.3
	C-3.4,216.8-6.5,154.6,10.5,99C17.2,77.9,27,57.6,40.3,39.8c1.4-2,1.4-2,2.9-4C90-27.5,154.5,5,209.1,42.7z"/>
<path d="M38.8,512h-4c-0.3,0-0.6,0-0.8-0.1c-2.3-0.5-3.9-1.2-5.3-2.3c-3.2-2.4-4.8-6.3-4.5-10.3c0.2-3.8,1.2-7.4,2.5-11.3
	c0.3-0.8,0.5-1.5,0.8-2.4c0.8-2.5,1.6-5,2.4-7.6c0.6-1.8,1.1-3.7,1.8-5.4c1.5-4.8,3-9.6,4.7-14.5c1.6-4.9,3.2-10,4.8-14.9
	c1.9-5.9,3.8-11.9,5.7-17.8c5.4-17.2,10.9-34.5,16.2-51.7c0.9-3,1.9-6.1,2.8-9l0.7-2.5c0-0.1,0-0.1,0.1-0.2c0.2-0.8,0.3-1.5,0.5-2.1
	c0.6-2.7,3.7-3.9,6-2.4c4.6,3.1,9.2,6.3,13.7,9.8c33.1,24,73.8,37.1,114.3,41c1.1,0.1,2.3,0.3,3.4,0.4l0,0c1.5,0.2,2.8,1.3,3.3,2.8
	c3.4,10.4,6.6,20.9,9.9,31.3c1.6,5.3,3.3,10.5,5,15.8c1.6,5,3.3,10.1,4.8,15.1c0.6,1.9,1.3,3.9,1.9,5.8c0.9,2.7,1.8,5.4,2.5,8.1
	c0.5,1.5,1,2.9,1.5,4.5c0,0.1,0.1,0.2,0.1,0.3c1.2,4.9,1.8,9.2,0.1,13.9c-0.1,0.3-0.3,0.6-0.5,0.9c-1.2,1.8-1.5,2.5-5,4.9"/>
<path d="M84.1,512"/>
<path d="M353,72.5L353,72.5L353,72.5c0,0-4.8,16.4-5.3,17.9c-0.6,1.6-1.1,3.2-1.8,4.8c-0.6,1.6-1.1,3.3-1.8,4.9
	c-1.6,4.4-3.2,8.8-4.8,13.3c-1.4,3.7-2.7,7.3-4,11c-8.8,24.6-17.8,49.3-27,73.8c-2.1,5.8-4.3,11.6-6.3,17.4c-1.5,4.2-3,8.2-4.5,12.4
	c-0.8,1.9-1.4,3.9-2.1,5.8c-1,2.7-1.9,5.3-2.9,8c-0.5,1.5-1.1,3-1.6,4.5c-0.2,0.4-0.3,0.7-0.5,1c-2,4.4-6.3,7.4-11.2,7.5
	c-0.5,0-0.9,0-1.4-0.1c-3.2-0.3-6.1-2.1-8.1-4.6c-0.7-1-1.3-2-1.6-3.2c-0.6-2-0.6-4.1-0.3-6.1c0.8-5.5,3-10.7,5-16.1
	c0.5-1.4,1-2.8,1.5-4.2c1.4-3.8,2.8-7.6,4.3-11.4c2.4-6.4,4.8-12.7,7.2-19.2c0.9-2.5,1.9-5,2.8-7.4c6.7-18,13.1-36.1,19.7-54.1
	c0.9-2.8,13.5-39.8,13.5-39.8l0,0l0,0l0,0l0,0l0,0l0,0c-12.7,12.9-25.6,25.8-38.4,38.5c-5.9,5.9-11.9,11.9-17.8,17.9
	c-5.7,5.8-11.5,11.5-17.2,17.3c-2.1,2.1-4.4,4.4-6.6,6.6c-3,3-6.2,6.2-9.2,9.2c-0.9,0.9-1.8,1.9-2.8,2.8c-0.9,0.9-1.6,1.6-2.5,2.5
	c-0.8,0.8-1.4,1.5-2.1,2.1c-3.6,3-5.9,4.1-10,4.4c-1.5,0.1-3.1,0-4.5-0.4c-1.3-0.3-2.2-0.8-3.2-1.6c-1.9-1.6-3.3-3.8-4-6.2
	c-0.4-1.6-0.5-3-0.3-4.6c0.4-2.9,1.7-5.6,3.6-7.8c2.2-2.5,4.5-4.9,6.9-7.2c1.5-1.5,1.5-1.5,3-3c3.3-3.3,6.6-6.4,9.8-9.7
	c2.3-2.3,4.5-4.5,6.8-6.8c5.3-5.3,10.7-10.6,16.2-16c6.2-6.1,12.2-12.1,18.3-18.2c12.6-12.5,25.1-25,37.7-37.4
	c-7.5,2.2-15,4.4-22.3,7.2c-0.8,0.3-1.5,0.5-2.3,0.8c-1.5,0.5-3,1.1-4.6,1.6c-1.6,0.6-3.3,1.1-4.9,1.8c-3.4,1.3-6.8,2.5-10.3,3.7
	c-4.4,1.6-9,3.3-13.4,4.8c-17.5,6.3-35.1,12.6-52.5,19.2c-1.4,0.5-2.7,1-4,1.5c-6.2,2.3-12.4,4.7-18.6,7.1c-2.1,0.9-4.4,1.6-6.6,2.5
	c-1,0.4-1.9,0.8-2.9,1.1c-4.8,1.8-8.9,2.6-13.6,2.7c-3.3,0-6.6-1.2-8.8-3.8c-1.1-1.3-1.9-2.9-2.4-5.1V116c-0.3-5.4,2.5-10.5,7.3-13
	c3.6-1.8,7.4-3.1,11.4-4.5c1.4-0.5,2.7-1,4-1.5c4.3-1.5,8.6-3.2,12.9-4.7c2.8-1,5.7-2,8.5-3c7.4-2.8,15-5.4,22.5-8.1
	c4.9-1.8,9.8-3.5,14.6-5.3c15.3-5.6,30.5-11,45.9-16.3c6.4-2.1,12.9-4.4,19.2-6.7c3-1,6.1-2.1,9.1-3.2c4.2-1.4,25.6-10,25.6-10l0,0
	l0,0"/>
<radialGradient id="SVGID_1_" cx="349.4" cy="317.7" r="39.7" fx="320.1683" fy="344.5626" gradientTransform="matrix(1 0 0 1 0 -278)" gradientUnits="userSpaceOnUse">
	<stop  offset="0" style="stop-color:#BF2A00"/>
	<stop  offset="0.4919" style="stop-color:#C12B01"/>
	<stop  offset="0.6691" style="stop-color:#C82C06"/>
	<stop  offset="0.7954" style="stop-color:#D3300F"/>
	<stop  offset="0.8975" style="stop-color:#E4351B"/>
	<stop  offset="0.9839" style="stop-color:#FA3B2A"/>
	<stop  offset="1" style="stop-color:#FF3C2E"/>
</radialGradient>
<circle class="st0" cx="349.4" cy="39.7" r="39.7"/>
</svg>
